<?xml version="1.0" encoding="UTF-8"?>
<svg width="200px" height="54px" viewBox="0 0 200 54" version="1.1" xmlns="http://www.w3.org/2000/svg" xmlns:xlink="http://www.w3.org/1999/xlink">
    <!-- Generator: sketchtool 46.2 (44496) - http://www.bohemiancoding.com/sketch -->
    <title>9DF52C68-01D3-4DA5-8A20-71633DD6EAE0</title>
    <desc>Created with sketchtool.</desc>
    <defs>
        <linearGradient x1="50%" y1="0%" x2="50%" y2="100%" id="linearGradient-1">
            <stop stop-color="#EB2B4F" offset="0%"></stop>
            <stop stop-color="#B62A8B" offset="100%"></stop>
        </linearGradient>
        <path d="M23.3011955,0.587822829 C23.6374063,0.25763861 24.0776494,0.0925465007 24.5182371,0.0925465007 C24.9591692,0.0925465007 25.4004458,0.258316606 25.7366565,0.589856818 C26.409078,1.25259824 26.4080446,2.32552745 25.7345897,2.98691289 L5.95671733,22.4179491 L7.96089159,22.4179491 L23.3638906,7.23335497 C24.0304559,6.56518958 25.1207295,6.55434164 25.8000405,7.2103031 C26.4793516,7.86558656 26.4896859,8.93885477 25.8238095,9.60702017 L12.7863425,22.4179491 L14.7185208,22.4179491 L23.2887943,13.8747987 C23.9588045,13.2103623 25.049078,13.2059554 25.7242553,13.8653068 C26.3997771,14.5243192 26.4045998,15.5975875 25.7345897,16.2623629 L19.570152,22.4179491 L20.5457143,22.4179491 L27.4025532,22.4179491 L34.1867072,22.4179491 C34.8777305,22.4179491 35.5015805,22.8237299 35.7719959,23.4498595 C36.0420669,24.0753111 35.9063425,24.7994112 35.4264843,25.2889246 L8.6227844,52.6281353 C8.28450679,52.9728964 7.83392928,53.1468025 7.38231834,53.1468025 C6.95240953,53.1468025 6.55920973,52.9891683 6.22541033,52.672205 C5.54058764,52.0226845 5.52026342,50.9497553 6.18062817,50.275827 L30.133921,25.8075918 L28.1163121,25.8075918 L8.61608916,45.3777461 C8.2802229,45.7086083 7.8389463,45.8740394 7.39835866,45.8740394 C6.95777102,45.8740394 6.51683891,45.7086083 6.18062817,45.3777461 C5.50786221,44.7156826 5.50786221,43.6424144 6.18062817,42.980351 L23.2443566,25.8075918 L21.26154,25.8075918 L8.62263425,38.3064543 C8.28607903,38.6396895 7.843769,38.8057987 7.40145897,38.8057987 C6.96224924,38.8057987 6.52269504,38.6413845 6.1864843,38.3125563 C5.51234043,37.6518489 5.5095846,36.5785807 6.18062817,35.9151612 L16.4016413,25.8075918 L15.4364134,25.8075918 L8.68464032,25.8075918 L1.7933536,25.8075918 C1.09612969,25.8075918 0.468490375,25.394353 0.201864235,24.7607654 C-0.0644174265,24.1268388 0.0833637285,23.3976538 0.576656535,22.9132254 L23.3011955,0.587822829 Z" id="path-2"></path>
        <linearGradient x1="50%" y1="0.81114477%" x2="50%" y2="100%" id="linearGradient-4">
            <stop stop-color="#6F2A82" stop-opacity="0" offset="0%"></stop>
            <stop stop-color="#6F2A82" offset="100%"></stop>
        </linearGradient>
        <linearGradient x1="44.2934901%" y1="100%" x2="44.2934912%" y2="0%" id="linearGradient-5">
            <stop stop-color="#6F2A82" stop-opacity="0" offset="0%"></stop>
            <stop stop-color="#6F2A82" offset="100%"></stop>
        </linearGradient>
        <linearGradient x1="50%" y1="100%" x2="50%" y2="0%" id="linearGradient-6">
            <stop stop-color="#6F2A82" stop-opacity="0" offset="0%"></stop>
            <stop stop-color="#6F2A82" offset="100%"></stop>
        </linearGradient>
    </defs>
    <g id="Page-1" stroke="none" stroke-width="1" fill="none" fill-rule="evenodd">
        <g id="Home" transform="translate(-61.000000, -50.000000)">
            <g id="Header" transform="translate(61.000000, 50.000000)">
                <g id="Page-1">
                    <g id="Group-14" transform="translate(51.773050, 13.017163)" fill="#FFFFFF">
                        <path d="M1.0170922,19.2941135 C0.596524823,18.9941135 0.296524823,18.4834752 0.296524823,17.882766 C0.296524823,16.921773 1.07737589,16.1714184 2.03765957,16.1714184 C2.54829787,16.1714184 2.87879433,16.321773 3.11921986,16.5012057 C4.86106383,17.882766 6.72276596,18.663617 9.00574468,18.663617 C11.287305,18.663617 12.7291489,17.582766 12.7291489,16.0210638 L12.7291489,15.9607801 C12.7291489,14.4593617 11.8880142,13.6487234 7.98446809,12.7480142 C3.51,11.6664539 0.987304965,10.3451773 0.987304965,6.47141844 L0.987304965,6.41113475 C0.987304965,2.80758865 3.99014184,0.315390071 8.16460993,0.315390071 C10.8071631,0.315390071 12.9397872,1.00546099 14.8312766,2.26716312 C15.2511348,2.50758865 15.6419149,3.01751773 15.6419149,3.73879433 C15.6419149,4.69978723 14.861773,5.45014184 13.9000709,5.45014184 C13.5397872,5.45014184 13.239078,5.36007092 12.9397872,5.17992908 C11.3170922,4.12886525 9.75609929,3.58843972 8.10432624,3.58843972 C5.94191489,3.58843972 4.68092199,4.69978723 4.68092199,6.08134752 L4.68092199,6.14092199 C4.68092199,7.7629078 5.64191489,8.48347518 9.6958156,9.44446809 C14.1404965,10.5253191 16.422766,12.1168085 16.422766,15.6004965 L16.422766,15.6607801 C16.422766,19.5948227 13.3291489,21.9373759 8.91567376,21.9373759 C6.06248227,21.9373759 3.35964539,21.0359574 1.0170922,19.2941135" id="Fill-1"></path>
                        <path d="M30.0002128,4.03893617 L24.8952482,4.03893617 C23.9335461,4.03893617 23.1831915,3.25808511 23.1831915,2.32687943 C23.1831915,1.39638298 23.9335461,0.615531915 24.8952482,0.615531915 L38.859078,0.615531915 C39.7902837,0.615531915 40.5406383,1.39638298 40.5406383,2.32687943 C40.5406383,3.25808511 39.7902837,4.03893617 38.859078,4.03893617 L33.723617,4.03893617 L33.723617,19.954539 C33.723617,20.9758156 32.8824823,21.7864539 31.8619149,21.7864539 C30.8413475,21.7864539 30.0002128,20.9758156 30.0002128,19.954539 L30.0002128,4.03893617 Z" id="Fill-3"></path>
                        <path d="M57.9021986,11.0359574 C60.545461,11.0359574 62.2270213,9.65439716 62.2270213,7.52248227 L62.2270213,7.46219858 C62.2270213,5.21042553 60.6050355,3.97851064 57.8724113,3.97851064 L52.4965248,3.97851064 L52.4965248,11.0359574 L57.9021986,11.0359574 Z M48.8029078,2.4770922 C48.8029078,1.42602837 49.6135461,0.615390071 50.6646099,0.615390071 L58.1724113,0.615390071 C60.8149645,0.615390071 62.887305,1.39624113 64.239078,2.71751773 C65.3497163,3.85865248 65.980922,5.42035461 65.980922,7.2522695 L65.980922,7.31255319 C65.980922,10.6756738 64.0284397,12.718227 61.2057447,13.5884397 L65.2298582,18.663617 C65.5901418,19.1139716 65.8305674,19.5047518 65.8305674,20.0756738 C65.8305674,21.0962411 64.9589362,21.7870213 64.0589362,21.7870213 C63.2178014,21.7870213 62.6766667,21.3962411 62.2568085,20.8260284 L57.1511348,14.3097163 L52.4965248,14.3097163 L52.4965248,19.9551064 C52.4965248,20.9756738 51.6858865,21.7870213 50.6646099,21.7870213 C49.6135461,21.7870213 48.8029078,20.9756738 48.8029078,19.9551064 L48.8029078,2.4770922 Z" id="Fill-5"></path>
                        <path d="M75.0231915,19.7747518 L75.0231915,2.47687943 C75.0231915,1.4258156 75.8338298,0.615177305 76.8848936,0.615177305 L89.1068794,0.615177305 C90.0082979,0.615177305 90.7586525,1.36624113 90.7586525,2.26695035 C90.7586525,3.19815603 90.0082979,3.9187234 89.1068794,3.9187234 L78.7168085,3.9187234 L78.7168085,9.38468085 L87.7558156,9.38468085 C88.657234,9.38468085 89.4075887,10.1350355 89.4075887,11.0662411 C89.4075887,11.9669504 88.657234,12.6875177 87.7558156,12.6875177 L78.7168085,12.6875177 L78.7168085,18.333617 L89.257234,18.333617 C90.1586525,18.333617 90.9090071,19.0839716 90.9090071,19.9846809 C90.9090071,20.9158865 90.1586525,21.6364539 89.257234,21.6364539 L76.8848936,21.6364539 C75.8338298,21.6364539 75.0231915,20.8258156 75.0231915,19.7747518" id="Fill-7"></path>
                        <path d="M112.205319,13.2882979 L108.510993,4.78971631 L104.817376,13.2882979 L112.205319,13.2882979 Z M98.4507092,19.2336879 L106.258511,1.81666667 C106.679078,0.885460993 107.430142,0.315248227 108.481206,0.315248227 L108.661348,0.315248227 C109.712411,0.315248227 110.432979,0.885460993 110.853546,1.81666667 L118.662057,19.2336879 C118.811702,19.5046099 118.871277,19.7748227 118.871277,20.0152482 C118.871277,21.0060284 118.120922,21.7868794 117.130142,21.7868794 C116.25922,21.7868794 115.658511,21.2762411 115.328014,20.4960993 L113.615957,16.5620567 L103.406028,16.5620567 L101.634397,20.6159574 C101.333688,21.3663121 100.703191,21.7868794 99.9230496,21.7868794 C98.9613475,21.7868794 98.2109929,21.0358156 98.2109929,20.0755319 C98.2109929,19.8046099 98.3010638,19.5343972 98.4507092,19.2336879 L98.4507092,19.2336879 Z" id="Fill-9"></path>
                        <path d="M127.373901,2.35737589 C127.373901,1.33609929 128.185248,0.495673759 129.236312,0.495673759 L129.626383,0.495673759 C130.437021,0.495673759 130.977447,0.915531915 131.33844,1.4864539 L137.704397,11.4566667 L144.10156,1.45595745 C144.491631,0.825460993 145.032057,0.495673759 145.783121,0.495673759 L146.173191,0.495673759 C147.224255,0.495673759 148.035603,1.33609929 148.035603,2.35737589 L148.035603,19.954539 C148.035603,20.9758156 147.224255,21.7871631 146.173191,21.7871631 C145.181702,21.7871631 144.341277,20.9460284 144.341277,19.954539 L144.341277,7.34248227 L139.206525,15.0602128 C138.815745,15.660922 138.335603,16.0212057 137.644113,16.0212057 C136.98383,16.0212057 136.503688,15.660922 136.112908,15.0602128 L131.007943,7.40205674 L131.007943,19.9843262 C131.007943,21.0063121 130.196596,21.7871631 129.176028,21.7871631 C128.155461,21.7871631 127.373901,21.0063121 127.373901,19.9843262 L127.373901,2.35737589 Z" id="Fill-11"></path>
                    </g>
                    <g id="Mark">
                        <mask id="mask-3" fill="white">
                            <use xlink:href="#path-2"></use>
                        </mask>
                        <use id="Clip-17" fill="url(#linearGradient-1)" xlink:href="#path-2"></use>
                        <polygon id="Fill-19" fill="url(#linearGradient-4)" mask="url(#mask-3)" points="9.88721378 20.4795575 7.96089159 22.4179491 12.7863425 22.4179491 14.7185208 20.4795575"></polygon>
                        <polygon id="Page-1" mask="url(#mask-3)" points="20.8726241 23.1442899 18.9463019 25.0826815 23.7714083 25.0826815 25.7039311 23.1442899"></polygon>
                        <polygon id="Fill-21" fill="url(#linearGradient-4)" mask="url(#mask-3)" points="16.6999595 20.4795575 14.7185208 22.4179491 19.5608511 22.4179491 21.5236879 20.4795575"></polygon>
                        <polygon id="Fill-23" fill="url(#linearGradient-5)" mask="url(#mask-3)" points="21.3163121 27.7456443 26.1479635 27.7456443 28.1163121 25.8075918 23.2491793 25.8075918"></polygon>
                        <polygon id="Fill-25" fill="url(#linearGradient-6)" mask="url(#mask-3)" points="16.4016413 25.8075918 14.4567173 27.7456443 19.2801013 27.7456443 21.26154 25.8075918"></polygon>
                    </g>
                </g>
            </g>
        </g>
    </g>
</svg>