<?xml version="1.0" encoding="UTF-8"?>
<svg width="540px" height="447px" viewBox="0 0 540 447" version="1.1" xmlns="http://www.w3.org/2000/svg" xmlns:xlink="http://www.w3.org/1999/xlink">
    <!-- Generator: sketchtool 46.2 (44496) - http://www.bohemiancoding.com/sketch -->
    <title>A5D46853-AAE9-4CA5-8D06-0BA882DA8E41</title>
    <desc>Created with sketchtool.</desc>
    <defs>
        <linearGradient x1="50%" y1="0%" x2="50%" y2="100%" id="linearGradient-1">
            <stop stop-color="#A854B8" offset="0%"></stop>
            <stop stop-color="#6F2A82" offset="100%"></stop>
        </linearGradient>
        <path d="M-1.13686838e-13,389 L540,389 C529.579913,299.27829 507.781461,238.427307 474.604644,206.447052 C424.839419,158.47667 368.284689,286.326709 328.126713,159.129082 C287.968737,31.9314545 238.880423,2.82211327 188.597319,0.121853753 C138.314216,-2.57840576 68.4088352,39.4387197 40.8715877,142.202623 C22.5134227,210.711892 8.88956013,292.977684 -1.13686838e-13,389 Z" id="path-2"></path>
        <path d="M23.9589262,18 L24,18 L24,0 L0,0 L0,18 L0.041073777,18 C0.0138713289,18.3297334 0,18.6632468 0,19 C0,25.627417 5.372583,31 12,31 C18.627417,31 24,25.627417 24,19 C24,18.6632468 23.9861287,18.3297334 23.9589262,18 Z" id="path-4"></path>
        <path d="M23.9589262,18 L24,18 L24,0 L0,0 L0,18 L0.041073777,18 C0.0138713289,18.3297334 0,18.6632468 0,19 C0,25.627417 5.372583,31 12,31 C18.627417,31 24,25.627417 24,19 C24,18.6632468 23.9861287,18.3297334 23.9589262,18 Z" id="path-6"></path>
        <linearGradient x1="50%" y1="0%" x2="50%" y2="100%" id="linearGradient-8">
            <stop stop-color="#EB2B4F" offset="0%"></stop>
            <stop stop-color="#B62A8B" offset="100%"></stop>
        </linearGradient>
        <path d="M23.3011955,0.587822829 C23.6374063,0.25763861 24.0776494,0.0925465007 24.5182371,0.0925465007 C24.9591692,0.0925465007 25.4004458,0.258316606 25.7366565,0.589856818 C26.409078,1.25259824 26.4080446,2.32552745 25.7345897,2.98691289 L5.95671733,22.4179491 L7.96089159,22.4179491 L23.3638906,7.23335497 C24.0304559,6.56518958 25.1207295,6.55434164 25.8000405,7.2103031 C26.4793516,7.86558656 26.4896859,8.93885477 25.8238095,9.60702017 L12.7863425,22.4179491 L14.7185208,22.4179491 L23.2887943,13.8747987 C23.9588045,13.2103623 25.049078,13.2059554 25.7242553,13.8653068 C26.3997771,14.5243192 26.4045998,15.5975875 25.7345897,16.2623629 L19.570152,22.4179491 L20.5457143,22.4179491 L27.4025532,22.4179491 L34.1867072,22.4179491 C34.8777305,22.4179491 35.5015805,22.8237299 35.7719959,23.4498595 C36.0420669,24.0753111 35.9063425,24.7994112 35.4264843,25.2889246 L8.6227844,52.6281353 C8.28450679,52.9728964 7.83392928,53.1468025 7.38231834,53.1468025 C6.95240953,53.1468025 6.55920973,52.9891683 6.22541033,52.672205 C5.54058764,52.0226845 5.52026342,50.9497553 6.18062817,50.275827 L30.133921,25.8075918 L28.1163121,25.8075918 L8.61608916,45.3777461 C8.2802229,45.7086083 7.8389463,45.8740394 7.39835866,45.8740394 C6.95777102,45.8740394 6.51683891,45.7086083 6.18062817,45.3777461 C5.50786221,44.7156826 5.50786221,43.6424144 6.18062817,42.980351 L23.2443566,25.8075918 L21.26154,25.8075918 L8.62263425,38.3064543 C8.28607903,38.6396895 7.843769,38.8057987 7.40145897,38.8057987 C6.96224924,38.8057987 6.52269504,38.6413845 6.1864843,38.3125563 C5.51234043,37.6518489 5.5095846,36.5785807 6.18062817,35.9151612 L16.4016413,25.8075918 L15.4364134,25.8075918 L8.68464032,25.8075918 L1.7933536,25.8075918 C1.09612969,25.8075918 0.468490375,25.394353 0.201864235,24.7607654 C-0.0644174265,24.1268388 0.0833637285,23.3976538 0.576656535,22.9132254 L23.3011955,0.587822829 Z" id="path-9"></path>
        <linearGradient x1="50%" y1="0.81114477%" x2="50%" y2="100%" id="linearGradient-11">
            <stop stop-color="#6F2A82" stop-opacity="0" offset="0%"></stop>
            <stop stop-color="#6F2A82" offset="100%"></stop>
        </linearGradient>
        <linearGradient x1="44.2934901%" y1="100%" x2="44.2934912%" y2="0%" id="linearGradient-12">
            <stop stop-color="#6F2A82" stop-opacity="0" offset="0%"></stop>
            <stop stop-color="#6F2A82" offset="100%"></stop>
        </linearGradient>
        <linearGradient x1="50%" y1="100%" x2="50%" y2="0%" id="linearGradient-13">
            <stop stop-color="#6F2A82" stop-opacity="0" offset="0%"></stop>
            <stop stop-color="#6F2A82" offset="100%"></stop>
        </linearGradient>
    </defs>
    <g id="Page-1" stroke="none" stroke-width="1" fill="none" fill-rule="evenodd">
        <g id="Team" transform="translate(-720.000000, -224.000000)">
            <g id="Illustration" transform="translate(720.000000, 224.000000)">
                <g id="Group-4" transform="translate(270.000000, 194.500000) scale(-1, 1) translate(-270.000000, -194.500000) ">
                    <mask id="mask-3" fill="white">
                        <use xlink:href="#path-2"></use>
                    </mask>
                    <use id="Path-2" fill="url(#linearGradient-1)" opacity="0.211333786" xlink:href="#path-2"></use>
                    <rect id="Rectangle-5" fill="#FFFFFF" opacity="0.496773098" mask="url(#mask-3)" x="64" y="-62" width="128" height="236"></rect>
                    <rect id="Rectangle-5-Copy" fill="#FFFFFF" opacity="0.496773098" mask="url(#mask-3)" x="234" y="40" width="175" height="236"></rect>
                    <rect id="Rectangle-5-Copy-2" stroke="#B62A8B" stroke-width="0.833273073" opacity="0.496773098" mask="url(#mask-3)" x="227.416637" y="142.416637" width="174.166727" height="148.166727"></rect>
                </g>
                <g id="Group-15" transform="translate(151.000000, 58.000000)">
                    <rect id="Rectangle-3" fill="#272C69" x="20" y="259" width="32" height="79"></rect>
                    <rect id="Rectangle-3-Copy" fill="#272C69" x="62" y="259" width="32" height="79"></rect>
                    <rect id="Rectangle-3-Copy" fill="#1A1E4C" x="62" y="259" width="32" height="9"></rect>
                    <rect id="Rectangle-3-Copy-2" fill="#1A1E4C" x="20" y="259" width="32" height="9"></rect>
                    <path d="M3.00128644,51.3683508 C3.19811216,22.964226 25.9556078,0 54,0 C82.0443922,0 104.801888,22.964226 104.998714,51.3683508 L105,111 C105,134.195959 86.1959595,153 63,153 L45,153 C21.8040405,153 3,134.195959 3,111 L3,51.3683508 Z" id="Combined-Shape" fill="#6F2A82"></path>
                    <path d="M12,144.810437 C12,120.062316 31.9233286,100 56.5,100 C81.0766714,100 101,120.062316 101,144.810437 L101,261 L12,261 L12,144.810437 Z" id="Combined-Shape" fill="#EB2B4F"></path>
                    <g id="Group-4" transform="translate(44.000000, 86.000000)">
                        <mask id="mask-5" fill="white">
                            <use xlink:href="#path-4"></use>
                        </mask>
                        <use id="Combined-Shape" fill="#FFFFFF" xlink:href="#path-4"></use>
                        <ellipse id="Oval-8" fill="#D8D8D8" mask="url(#mask-5)" cx="4.47399928" cy="-1.52600072" rx="23.0579987" ry="18.5219989"></ellipse>
                    </g>
                    <path d="M24,64.6167775 C24,81.9492527 38.1030304,96 55.5,96 C72.8969696,96 87,81.9492527 87,64.6167775 L87,40 L24,40 L24,64.6167775 Z" id="Combined-Shape" fill="#FFFFFF"></path>
                    <polygon id="Triangle" fill="#FFFFFF" points="40 31 46 43 34 43"></polygon>
                    <rect id="Rectangle-4" fill="#272C69" x="37" y="139" width="24" height="42" rx="5"></rect>
                    <circle id="Oval-3" fill="#FFFFFF" cx="36.5" cy="173.5" r="12.5"></circle>
                    <circle id="Oval-3-Copy" fill="#FFFFFF" cx="99.5" cy="218.5" r="12.5"></circle>
                    <g id="Group" transform="translate(26.000000, 362.500000) scale(-1, 1) translate(-26.000000, -362.500000) translate(0.000000, 336.000000)" fill="#B90B2C">
                        <path d="M51.9449952,52.7343131 C51.9449952,38.5504092 40.3167119,27.0520833 25.9724976,27.0520833 C11.6282833,27.0520833 0,38.5504092 0,52.7343131" id="Oval-5-Copy"></path>
                        <rect id="Rectangle-5-Copy" x="0" y="0" width="32.1856867" height="50.9215686"></rect>
                    </g>
                    <g id="Group-2" transform="translate(68.000000, 362.500000) scale(-1, 1) translate(-68.000000, -362.500000) translate(42.000000, 336.000000)" fill="#EB2B4F">
                        <path d="M51.9449952,52.7343131 C51.9449952,38.5504092 40.3167119,27.0520833 25.9724976,27.0520833 C11.6282833,27.0520833 0,38.5504092 0,52.7343131" id="Oval-5"></path>
                        <rect id="Rectangle-5" x="0" y="0" width="32.1856867" height="50.9215686"></rect>
                    </g>
                </g>
                <g id="Group-15-Copy" transform="translate(281.000000, 57.000000)">
                    <rect id="Rectangle-3" fill="#272C69" x="20" y="260" width="32" height="79"></rect>
                    <rect id="Rectangle-3-Copy" fill="#272C69" x="62" y="260" width="32" height="79"></rect>
                    <rect id="Rectangle-3-Copy" fill="#1A1E4C" x="62" y="260" width="32" height="9"></rect>
                    <rect id="Rectangle-3-Copy-2" fill="#1A1E4C" x="20" y="260" width="32" height="9"></rect>
                    <path d="M12,145.810437 C12,121.062316 31.9233286,101 56.5,101 C81.0766714,101 101,121.062316 101,145.810437 L101,262 L12,262 L12,145.810437 Z" id="Combined-Shape" fill="#49C3CF"></path>
                    <g id="Group-4" transform="translate(44.000000, 87.000000)">
                        <mask id="mask-7" fill="white">
                            <use xlink:href="#path-6"></use>
                        </mask>
                        <use id="Combined-Shape" fill="#FFFFFF" xlink:href="#path-6"></use>
                        <ellipse id="Oval-8" fill="#D8D8D8" mask="url(#mask-7)" cx="4.47399928" cy="-1.52600072" rx="23.0579987" ry="18.5219989"></ellipse>
                    </g>
                    <path d="M24,65.6167775 C24,82.9492527 38.1030304,97 55.5,97 C72.8969696,97 87,82.9492527 87,65.6167775 L87,41 L24,41 L24,65.6167775 Z" id="Combined-Shape" fill="#FFFFFF"></path>
                    <rect id="Rectangle-14" fill="#272C69" x="84" y="41" width="6" height="15"></rect>
                    <circle id="Oval-6" fill="#FFFFFF" cx="87" cy="57" r="5"></circle>
                    <polygon id="Path-3" fill="#D8D8D8" points="84.3378906 40.9897461 24 49.8535156 24 40.21875"></polygon>
                    <path d="M10.413333,34 L90,34 L90,41 L10.413333,41 L10.413333,41 C8.52820123,41 7,39.4717988 7,37.586667 L7,37.413333 L7,37.413333 C7,35.5282012 8.52820123,34 10.413333,34 Z" id="Rectangle-10" fill="#6F2A82"></path>
                    <path d="M40.0666649,0 L72.9333351,0 L72.9333351,0 C82.3589939,-1.73146542e-15 90,7.64100614 90,17.0666649 L90,34 L23,34 L23,17.0666649 L23,17.0666649 C23,7.64100614 30.6410061,1.73146542e-15 40.0666649,0 Z" id="Rectangle-11" fill="#B62A8B"></path>
                    <path d="M56,0 L72.9333351,0 L72.9333351,0 C82.3589939,-1.73146542e-15 90,7.64100614 90,17.0666649 L90,34 L56,34 L56,0 Z" id="Rectangle-11" fill="#6F2A82"></path>
                    <circle id="Oval-3-Copy" fill="#FFFFFF" cx="99.5" cy="226.5" r="12.5"></circle>
                    <circle id="Oval-3-Copy-2" fill="#FFFFFF" cx="12.5" cy="226.5" r="12.5"></circle>
                    <g id="Group" transform="translate(26.000000, 363.500000) scale(-1, 1) translate(-26.000000, -363.500000) translate(0.000000, 337.000000)" fill="#B90B2C">
                        <path d="M51.9449952,52.7343131 C51.9449952,38.5504092 40.3167119,27.0520833 25.9724976,27.0520833 C11.6282833,27.0520833 0,38.5504092 0,52.7343131" id="Oval-5-Copy"></path>
                        <rect id="Rectangle-5-Copy" x="0" y="0" width="32.1856867" height="50.9215686"></rect>
                    </g>
                    <g id="Group-2" transform="translate(68.000000, 363.500000) scale(-1, 1) translate(-68.000000, -363.500000) translate(42.000000, 337.000000)" fill="#EB2B4F">
                        <path d="M51.9449952,52.7343131 C51.9449952,38.5504092 40.3167119,27.0520833 25.9724976,27.0520833 C11.6282833,27.0520833 0,38.5504092 0,52.7343131" id="Oval-5"></path>
                        <rect id="Rectangle-5" x="0" y="0" width="32.1856867" height="50.9215686"></rect>
                    </g>
                </g>
                <path d="M132.99982,74.7127673 C132.96549,101.526669 111.271583,123.255058 84.5002339,123.289442 C78.5234909,123.297869 72.5982413,122.182914 67.0320748,120.002455 C61.1795491,124.033137 54.2143076,126.128213 47.1129731,125.993925 C45.6124313,126.005182 44.1130381,125.907844 42.6265018,125.702673 C41.7341565,125.603816 41.0062252,124.941911 40.8219859,124.061835 C40.6377467,123.181759 41.0389055,122.282733 41.8164444,121.833182 C46.1990622,118.899858 48.3799858,112.9708 49.4392915,108.144338 C34.3550178,92.3368052 31.674856,68.3831277 42.8914264,49.6234482 C54.1079969,30.8637687 76.4563479,21.9224601 97.4903655,27.7790641 C118.524383,33.6356681 133.059056,52.846497 132.99982,74.7127673 Z" id="Shape" fill="#272C69" fill-rule="nonzero" transform="translate(84.500000, 76.000000) scale(-1, 1) translate(-84.500000, -76.000000) "></path>
                <g id="Mark" transform="translate(67.000000, 49.000000)">
                    <mask id="mask-10" fill="white">
                        <use xlink:href="#path-9"></use>
                    </mask>
                    <use id="Clip-17" fill="url(#linearGradient-8)" xlink:href="#path-9"></use>
                    <polygon id="Fill-19" fill="url(#linearGradient-11)" mask="url(#mask-10)" points="9.88721378 20.4795575 7.96089159 22.4179491 12.7863425 22.4179491 14.7185208 20.4795575"></polygon>
                    <polygon id="Page-1" mask="url(#mask-10)" points="20.8726241 23.1442899 18.9463019 25.0826815 23.7714083 25.0826815 25.7039311 23.1442899"></polygon>
                    <polygon id="Fill-21" fill="url(#linearGradient-11)" mask="url(#mask-10)" points="16.6999595 20.4795575 14.7185208 22.4179491 19.5608511 22.4179491 21.5236879 20.4795575"></polygon>
                    <polygon id="Fill-23" fill="url(#linearGradient-12)" mask="url(#mask-10)" points="21.3163121 27.7456443 26.1479635 27.7456443 28.1163121 25.8075918 23.2491793 25.8075918"></polygon>
                    <polygon id="Fill-25" fill="url(#linearGradient-13)" mask="url(#mask-10)" points="16.4016413 25.8075918 14.4567173 27.7456443 19.2801013 27.7456443 21.26154 25.8075918"></polygon>
                </g>
            </g>
        </g>
    </g>
</svg>