<?xml version="1.0" encoding="UTF-8"?>
<svg width="20px" height="18px" viewBox="0 0 20 18" version="1.1" xmlns="http://www.w3.org/2000/svg" xmlns:xlink="http://www.w3.org/1999/xlink">
    <!-- Generator: Sketch 47.1 (45422) - http://www.bohemiancoding.com/sketch -->
    <title>Page 1</title>
    <desc>Created with Sketch.</desc>
    <defs></defs>
    <g id="Symbols" stroke="none" stroke-width="1" fill="none" fill-rule="evenodd">
        <g id="Footer" transform="translate(-1353.000000, -84.000000)" fill="#272C69">
            <g id="Page-1">
                <g transform="translate(1353.000000, 84.000000)">
                    <path d="M15.9473084,15.7285324 C15.9161141,15.7802852 15.8426144,15.8846821 15.7377421,15.92776 C15.6458229,15.9654308 15.5227094,15.9557457 15.3712537,15.89918 L11.4075579,12.8603803 L9.45420083,11.3339988 C11.1060131,9.84891266 16.258063,5.21647059 16.5134997,4.97802733 C16.7235413,4.7819489 16.9598455,4.51070707 16.9217588,4.15057635 C16.9176589,4.11195484 16.9102911,4.07398693 16.8998336,4.03720737 C16.8649554,3.81849079 16.7435651,3.63209745 16.5565181,3.51944147 C16.1786215,3.29187166 15.7338206,3.4658467 15.427344,3.65188354 C15.4237195,3.654082 15.4202139,3.65633987 15.4166488,3.65853832 L6.06210339,9.59923945 L2.35396316,8.35081402 C2.2792751,8.32163993 2.19311943,8.26816399 2.13910873,8.22110517 C2.20191325,8.17743316 2.29175282,8.12954248 2.36626263,8.10292335 C2.37493761,8.09989305 2.38349376,8.09674391 2.39210933,8.09341652 L18.2962092,1.85455734 C18.3039929,1.85152704 18.3117172,1.84831848 18.3193821,1.84493167 C18.4292454,1.79668449 18.5972193,1.74962567 18.723363,1.73191919 L15.9473084,15.7285324 Z M9.00518122,12.5907427 L10.0565775,13.3968627 L8.77939394,14.561331 L9.00518122,12.5907427 Z M19.5127867,0.668045157 C18.9190255,0.28040404 18.0899109,0.584682115 17.8298396,0.697159834 L1.94814023,6.92722519 C1.38325609,7.1249079 0.762400475,7.606429 0.852002377,8.32282828 C0.956161616,9.15604278 1.83584076,9.49109923 1.93584076,9.5265716 C1.93904932,9.52775995 1.94219846,9.52882947 1.94540701,9.52989899 L5.64213904,10.7744029 C5.93203803,11.7242543 6.7963874,14.5544385 6.99614973,15.1870588 C7.16661913,15.7269875 7.39311943,16.3009031 7.92752228,16.3575282 C8.01498515,16.3805823 8.11563874,16.3936542 8.23114676,16.3936542 C8.57838384,16.3936542 8.79157457,16.274997 8.91557932,16.1257398 L11.0626381,14.168164 L14.6783244,16.9402377 C14.718372,16.9709566 14.762044,16.9966845 14.8083898,17.0169459 C15.1126679,17.1496851 15.3831373,17.1973381 15.6146286,17.1973381 C15.8590731,17.1973381 16.0600238,17.1442187 16.2113607,17.0820677 C16.842852,16.8229471 17.0957932,16.2287701 17.1225906,16.1618657 C17.1369103,16.1261557 17.1477837,16.0892573 17.1552704,16.0515865 L19.9875342,1.77149138 C19.9954961,1.73150327 19.9994771,1.69086156 19.9994771,1.65010101 C19.9994771,1.07214498 19.694486,0.786702317 19.5127867,0.668045157 L19.5127867,0.668045157 Z" id="Fill-4"></path>
                </g>
            </g>
        </g>
    </g>
</svg>