<?xml version="1.0" encoding="UTF-8"?>
<svg width="209px" height="159px" viewBox="0 0 209 159" version="1.1" xmlns="http://www.w3.org/2000/svg" xmlns:xlink="http://www.w3.org/1999/xlink">
    <!-- Generator: sketchtool 46.2 (44496) - http://www.bohemiancoding.com/sketch -->
    <title>18BA1464-ECBD-4FC4-81CD-B7A1D3593463</title>
    <desc>Created with sketchtool.</desc>
    <defs>
        <linearGradient x1="50%" y1="0%" x2="50%" y2="100%" id="linearGradient-1">
            <stop stop-color="#EB2B4F" offset="0%"></stop>
            <stop stop-color="#B62A8B" offset="100%"></stop>
        </linearGradient>
        <path d="M33.7928936,0.146201804 C33.1849441,0.14620218 32.5766673,0.377846536 32.112381,0.83971519 L0.699047619,32.1009494 C0.0171428571,32.7792722 -0.187142857,33.8003165 0.180952381,34.6879747 C0.549047619,35.5751582 1.41714286,36.1537975 2.38095238,36.1537975 L11.9071429,36.1537975 L21.2404762,36.1537975 L22.5752381,36.1537975 L8.44571429,50.306962 C7.51809524,51.2359177 7.52190476,52.7387658 8.45380952,53.6634494 C8.91809524,54.1243671 9.52619048,54.3545886 10.1338095,54.3545886 C10.7447619,54.3545886 11.3557143,54.121519 11.8209524,53.6553797 L29.2928571,36.1537975 L32.0338095,36.1537975 L8.60619048,59.9088608 C7.67619048,60.835443 7.67619048,62.3387658 8.60619048,63.2658228 C9.07095238,63.7291139 9.68,63.9612342 10.2895238,63.9612342 C10.8985714,63.9612342 11.5085714,63.7291139 11.9728571,63.2658228 L38.7685714,36.1537975 L41.557619,36.1537975 L8.41380952,70.5047468 C7.50095238,71.4484177 7.52857143,72.9512658 8.4752381,73.8607595 C8.92571429,74.2941456 9.50380952,74.5148734 10.0838095,74.5253165 L10.17,74.5253165 C10.7795238,74.5143987 11.3847619,74.2713608 11.8419048,73.7990506 L48.8738095,35.4280063 C49.5366667,34.7420886 49.7247619,33.7286392 49.3509524,32.8523734 C48.977619,31.9761076 48.1147619,31.406962 47.16,31.406962 L37.7819048,31.406962 L28.3033333,31.406962 L26.9547619,31.406962 L35.477619,22.8384494 C36.4038095,21.9075949 36.3971429,20.4052215 35.4633333,19.481962 C34.53,18.5587025 33.022381,18.5653481 32.0966667,19.4957278 L20.2480952,31.406962 L17.5766667,31.406962 L35.4285714,13.2655063 C36.3490476,12.3294304 36.3342857,10.8265823 35.3957143,9.90949367 C34.4561905,8.9914557 32.9490476,9.0056962 32.0285714,9.94177215 L10.9066667,31.406962 L8.13619048,31.406962 L35.4761905,4.19905063 C36.4071429,3.27246835 36.4085714,1.77009494 35.4795238,0.842088608 C35.0147619,0.378322785 34.4047619,0.146202532 33.7947619,0.146202532 C33.7941391,0.146202046 33.7935164,0.146201803 33.7928936,0.146201804 L33.7928938,0.146201804 L33.7928936,0.146201804 Z" id="path-2"></path>
        <linearGradient x1="50%" y1="0.81114477%" x2="50%" y2="100%" id="linearGradient-4">
            <stop stop-color="#6F2A82" stop-opacity="0" offset="0%"></stop>
            <stop stop-color="#6F2A82" offset="100%"></stop>
        </linearGradient>
        <linearGradient x1="50%" y1="100%" x2="50%" y2="0.81114477%" id="linearGradient-5">
            <stop stop-color="#6F2A82" stop-opacity="0" offset="0%"></stop>
            <stop stop-color="#6F2A82" offset="100%"></stop>
        </linearGradient>
    </defs>
    <g id="Page-1" stroke="none" stroke-width="1" fill="none" fill-rule="evenodd">
        <g id="Full-Color" transform="translate(-202.000000, -153.000000)">
            <g id="Vertical-Lock-Up" transform="translate(202.000000, 153.000000)">
                <path d="M1.0166,155.1119 C0.4226,154.6889 -0.0004,153.9689 -0.0004,153.1219 C-0.0004,151.7669 1.1006,150.7079 2.4556,150.7079 C3.1746,150.7079 3.6416,150.9199 3.9796,151.1739 C6.4366,153.1219 9.0616,154.2229 12.2796,154.2229 C15.4966,154.2229 17.5306,152.6979 17.5306,150.4969 L17.5306,150.4119 C17.5306,148.2949 16.3446,147.1519 10.8396,145.8809 C4.5306,144.3569 0.9736,142.4939 0.9736,137.0309 L0.9736,136.9469 C0.9736,131.8649 5.2076,128.3509 11.0936,128.3509 C14.8196,128.3509 17.8266,129.3249 20.4936,131.1029 C21.0866,131.4419 21.6376,132.1619 21.6376,133.1779 C21.6376,134.5329 20.5366,135.5919 19.1806,135.5919 C18.6726,135.5919 18.2486,135.4649 17.8266,135.2109 C15.5396,133.7289 13.3376,132.9659 11.0086,132.9659 C7.9596,132.9659 6.1816,134.5329 6.1816,136.4809 L6.1816,136.5659 C6.1816,138.8519 7.5366,139.8679 13.2526,141.2229 C19.5206,142.7479 22.7376,144.9919 22.7376,149.9039 L22.7376,149.9879 C22.7376,155.5349 18.3756,158.8379 12.1526,158.8379 C8.1296,158.8379 4.3196,157.5679 1.0166,155.1119" id="Fill-1" fill="#272C69"></path>
                <path d="M41.8818,133.6017 L34.6838,133.6017 C33.3288,133.6017 32.2708,132.5007 32.2708,131.1877 C32.2708,129.8757 33.3288,128.7747 34.6838,128.7747 L54.3728,128.7747 C55.6868,128.7747 56.7448,129.8757 56.7448,131.1877 C56.7448,132.5007 55.6868,133.6017 54.3728,133.6017 L47.1318,133.6017 L47.1318,156.0437 C47.1318,157.4827 45.9458,158.6267 44.5068,158.6267 C43.0678,158.6267 41.8818,157.4827 41.8818,156.0437 L41.8818,133.6017 Z" id="Fill-4" fill="#272C69"></path>
                <path d="M81.2236,143.4674 C84.9506,143.4674 87.3216,141.5194 87.3216,138.5134 L87.3216,138.4284 C87.3216,135.2534 85.0346,133.5164 81.1816,133.5164 L73.6026,133.5164 L73.6026,143.4674 L81.2236,143.4674 Z M68.3936,131.3994 C68.3936,129.9174 69.5366,128.7744 71.0186,128.7744 L81.6046,128.7744 C85.3306,128.7744 88.2526,129.8754 90.1586,131.7384 C91.7256,133.3474 92.6146,135.5494 92.6146,138.1324 L92.6146,138.2174 C92.6146,142.9594 89.8626,145.8394 85.8816,147.0664 L91.5556,154.2224 C92.0636,154.8584 92.4026,155.4084 92.4026,156.2134 C92.4026,157.6524 91.1746,158.6264 89.9046,158.6264 C88.7186,158.6264 87.9556,158.0754 87.3646,157.2714 L80.1646,148.0834 L73.6026,148.0834 L73.6026,156.0434 C73.6026,157.4834 72.4586,158.6264 71.0186,158.6264 C69.5366,158.6264 68.3936,157.4834 68.3936,156.0434 L68.3936,131.3994 Z" id="Fill-6" fill="#272C69"></path>
                <path d="M105.3643,155.7892 L105.3643,131.3992 C105.3643,129.9172 106.5073,128.7742 107.9893,128.7742 L125.2223,128.7742 C126.4933,128.7742 127.5513,129.8332 127.5513,131.1032 C127.5513,132.4162 126.4933,133.4322 125.2223,133.4322 L110.5723,133.4322 L110.5723,141.1392 L123.3173,141.1392 C124.5883,141.1392 125.6463,142.1972 125.6463,143.5102 C125.6463,144.7802 124.5883,145.7962 123.3173,145.7962 L110.5723,145.7962 L110.5723,153.7572 L125.4343,153.7572 C126.7053,153.7572 127.7633,154.8152 127.7633,156.0852 C127.7633,157.3982 126.7053,158.4142 125.4343,158.4142 L107.9893,158.4142 C106.5073,158.4142 105.3643,157.2712 105.3643,155.7892" id="Fill-8" fill="#272C69"></path>
                <path d="M157.791,146.6432 L152.582,134.6602 L147.374,146.6432 L157.791,146.6432 Z M138.397,155.0272 L149.406,130.4682 C149.999,129.1552 151.058,128.3512 152.54,128.3512 L152.794,128.3512 C154.276,128.3512 155.292,129.1552 155.885,130.4682 L166.895,155.0272 C167.106,155.4082 167.19,155.7892 167.19,156.1282 C167.19,157.5252 166.132,158.6262 164.735,158.6262 C163.507,158.6262 162.66,157.9062 162.194,156.8062 L159.78,151.2592 L145.384,151.2592 L142.886,156.9752 C142.462,158.0342 141.573,158.6262 140.473,158.6262 C139.117,158.6262 138.059,157.5682 138.059,156.2132 C138.059,155.8312 138.186,155.4512 138.397,155.0272 L138.397,155.0272 Z" id="Fill-10" fill="#272C69"></path>
                <path d="M179.1787,131.2306 C179.1787,129.7906 180.3227,128.6056 181.8047,128.6056 L182.3547,128.6056 C183.4977,128.6056 184.2597,129.1976 184.7687,130.0026 L193.7447,144.0606 L202.7647,129.9596 C203.3147,129.0706 204.0767,128.6056 205.1357,128.6056 L205.6857,128.6056 C207.1677,128.6056 208.3117,129.7906 208.3117,131.2306 L208.3117,156.0436 C208.3117,157.4826 207.1677,158.6266 205.6857,158.6266 C204.2877,158.6266 203.1027,157.4406 203.1027,156.0436 L203.1027,138.2596 L195.8627,149.1416 C195.3117,149.9886 194.6347,150.4966 193.6597,150.4966 C192.7287,150.4966 192.0517,149.9886 191.5007,149.1416 L184.3027,138.3436 L184.3027,156.0856 C184.3027,157.5256 183.1587,158.6266 181.7197,158.6266 C180.2807,158.6266 179.1787,157.5256 179.1787,156.0856 L179.1787,131.2306 Z" id="Fill-12" fill="#272C69"></path>
                <circle id="Oval" fill="#272C69" cx="104" cy="50" r="50"></circle>
                <g id="Mark" transform="translate(79.000000, 13.000000)">
                    <g id="Group-3" transform="translate(0.000000, 0.328481)">
                        <mask id="mask-3" fill="white">
                            <use xlink:href="#path-2"></use>
                        </mask>
                        <use id="Clip-2" fill="url(#linearGradient-1)" xlink:href="#path-2"></use>
                    </g>
                    <g id="Group-12" transform="translate(10.476190, 28.809494)">
                        <polygon id="Fill-4" fill="url(#linearGradient-4)" points="7.10052381 2.92599684 0.43052381 2.92599684 3.09338095 0.211756329 9.77195238 0.211756329"></polygon>
                        <polygon id="Fill-6" fill="url(#linearGradient-4)" points="16.4655714 2.92599684 9.7722381 2.92599684 12.5108095 0.211756329 19.1789048 0.211756329"></polygon>
                        <polygon id="Fill-8" fill="url(#linearGradient-5)" points="21.5641429 7.67235759 28.2922381 7.67283228 25.5712857 10.3865981 18.8927143 10.3865981"></polygon>
                        <polygon id="Fill-10" fill="url(#linearGradient-5)" points="12.0986667 7.67283228 18.8167619 7.67235759 16.0777143 10.3865981 9.41009524 10.3865981"></polygon>
                    </g>
                </g>
            </g>
        </g>
    </g>
</svg>