<?xml version="1.0" encoding="UTF-8"?>
<svg width="19px" height="19px" viewBox="0 0 19 19" version="1.1" xmlns="http://www.w3.org/2000/svg" xmlns:xlink="http://www.w3.org/1999/xlink">
    <!-- Generator: sketchtool 46.2 (44496) - http://www.bohemiancoding.com/sketch -->
    <title>29BFBAFB-7F9C-4C3E-8588-34B866C5A70D</title>
    <desc>Created with sketchtool.</desc>
    <defs></defs>
    <g id="Symbols" stroke="none" stroke-width="1" fill="none" fill-rule="evenodd">
        <g id="Footer" transform="translate(-1244.000000, -84.000000)" fill="#272C69">
            <g id="Facebook">
                <path d="M1254.14852,103 L1245.04865,103 C1244.46933,103 1244,102.53038 1244,101.95128 L1244,85.048646 C1244,84.4693988 1244.4694,84 1245.04865,84 L1261.95142,84 C1262.53052,84 1263,84.4693988 1263,85.048646 L1263,101.95128 C1263,102.530454 1262.53045,103 1261.95142,103 L1257.10973,103 L1257.10973,95.6421529 L1259.57941,95.6421529 L1259.94922,92.7746693 L1257.10973,92.7746693 L1257.10973,90.9439622 C1257.10973,90.1137596 1257.34026,89.5480038 1258.53076,89.5480038 L1260.04919,89.5473403 L1260.04919,86.98264 C1259.78658,86.947695 1258.88523,86.8696216 1257.83657,86.8696216 C1255.64733,86.8696216 1254.14852,88.2059375 1254.14852,90.6599785 L1254.14852,92.7746693 L1251.67249,92.7746693 L1251.67249,95.6421529 L1254.14852,95.6421529 L1254.14852,103 L1254.14852,103 Z"></path>
            </g>
        </g>
    </g>
</svg>