<?xml version="1.0" encoding="UTF-8"?>
<svg width="19px" height="19px" viewBox="0 0 19 19" version="1.1" xmlns="http://www.w3.org/2000/svg" xmlns:xlink="http://www.w3.org/1999/xlink">
    <!-- Generator: sketchtool 46.2 (44496) - http://www.bohemiancoding.com/sketch -->
    <title>04B1CE19-E13C-4F71-A38F-CFB19EF8661A</title>
    <desc>Created with sketchtool.</desc>
    <defs></defs>
    <g id="Symbols" stroke="none" stroke-width="1" fill="none" fill-rule="evenodd">
        <g id="Footer" transform="translate(-1322.000000, -84.000000)" fill="#272C69">
            <g id="Instagram">
                <path d="M1331.50002,84 C1334.08005,84 1334.40356,84.010936 1335.41684,84.0571688 C1336.428,84.1032885 1337.11859,84.2638967 1337.72286,84.4987566 C1338.34757,84.7414978 1338.87736,85.0663344 1339.40553,85.5944673 C1339.93367,86.1226379 1340.2585,86.65243 1340.50128,87.277139 C1340.7361,87.881409 1340.89671,88.5719979 1340.94283,89.5831621 C1340.98906,90.5964382 1341,90.9199549 1341,93.5000189 C1341,96.0800451 1340.98906,96.4035618 1340.94283,97.4168379 C1340.89671,98.4280021 1340.7361,99.118591 1340.50128,99.722861 C1340.2585,100.34757 1339.93367,100.877362 1339.40553,101.405533 C1338.87736,101.933666 1338.34757,102.258502 1337.72286,102.501281 C1337.11859,102.736103 1336.428,102.896711 1335.41684,102.942831 C1334.40356,102.989064 1334.08005,103 1331.50002,103 C1328.91995,103 1328.59644,102.989064 1327.58316,102.942831 C1326.572,102.896711 1325.88141,102.736103 1325.27714,102.501281 C1324.65243,102.258502 1324.12264,101.933666 1323.59447,101.405533 C1323.06633,100.877362 1322.7415,100.34757 1322.49876,99.722861 C1322.2639,99.118591 1322.10329,98.4280021 1322.05717,97.4168379 C1322.01094,96.4035618 1322,96.0800451 1322,93.5000189 C1322,90.9199549 1322.01094,90.5964382 1322.05717,89.5831621 C1322.10329,88.5719979 1322.2639,87.881409 1322.49876,87.277139 C1322.7415,86.65243 1323.06633,86.1226379 1323.59447,85.5944673 C1324.12264,85.0663344 1324.65243,84.7414978 1325.27714,84.4987566 C1325.88141,84.2638967 1326.572,84.1032885 1327.58316,84.0571688 C1328.59644,84.010936 1328.91995,84 1331.50002,84 Z M1331.50002,85.7117087 C1328.9634,85.7117087 1328.66292,85.7214002 1327.66118,85.7671051 C1326.73494,85.8093406 1326.23193,85.9641038 1325.89717,86.0942043 C1325.45374,86.2665404 1325.13727,86.472401 1324.80486,86.8048551 C1324.4724,87.1372715 1324.26654,87.4537364 1324.0942,87.8971719 C1323.9641,88.2319263 1323.80934,88.7349442 1323.76711,89.6611848 C1323.7214,90.6629214 1323.71171,90.9633972 1323.71171,93.5000189 C1323.71171,96.0366028 1323.7214,96.3370786 1323.76711,97.3388152 C1323.80934,98.2650558 1323.9641,98.7680737 1324.0942,99.1028281 C1324.26654,99.5462636 1324.47244,99.8627285 1324.80486,100.195145 C1325.13727,100.527599 1325.45374,100.73346 1325.89717,100.905796 C1326.23193,101.035896 1326.73494,101.190659 1327.66118,101.232895 C1328.66281,101.2786 1328.96321,101.288291 1331.50002,101.288291 C1334.03679,101.288291 1334.33723,101.2786 1335.33882,101.232895 C1336.26506,101.190659 1336.76807,101.035896 1337.10283,100.905796 C1337.54626,100.73346 1337.86273,100.527599 1338.19514,100.195145 C1338.5276,99.8627285 1338.73346,99.5462636 1338.9058,99.1028281 C1339.0359,98.7680737 1339.19066,98.2650558 1339.23289,97.3388152 C1339.2786,96.3370786 1339.28829,96.0366028 1339.28829,93.5000189 C1339.28829,90.9633972 1339.2786,90.6629214 1339.23289,89.6611848 C1339.19066,88.7349442 1339.0359,88.2319263 1338.9058,87.8971719 C1338.73346,87.4537364 1338.5276,87.1372715 1338.19514,86.8048551 C1337.86273,86.472401 1337.54626,86.2665404 1337.10283,86.0942043 C1336.76807,85.9641038 1336.26506,85.8093406 1335.33882,85.7671051 C1334.33708,85.7214002 1334.0366,85.7117087 1331.50002,85.7117087 Z M1331.50002,88.6216247 C1334.19427,88.6216247 1336.37838,90.8057304 1336.37838,93.5000189 C1336.37838,96.1942696 1334.19427,98.3783753 1331.50002,98.3783753 C1328.80573,98.3783753 1326.62162,96.1942696 1326.62162,93.5000189 C1326.62162,90.8057304 1328.80573,88.6216247 1331.50002,88.6216247 Z M1331.50002,96.6666667 C1333.24891,96.6666667 1334.66667,95.2489099 1334.66667,93.5000189 C1334.66667,91.7510901 1333.24891,90.3333333 1331.50002,90.3333333 C1329.75109,90.3333333 1328.33333,91.7510901 1328.33333,93.5000189 C1328.33333,95.2489099 1329.75109,96.6666667 1331.50002,96.6666667 Z M1337.71113,88.4288873 C1337.71113,89.0584986 1337.20072,89.5688699 1336.57111,89.5688699 C1335.94154,89.5688699 1335.43113,89.0584986 1335.43113,88.4288873 C1335.43113,87.799276 1335.94154,87.2888669 1336.57111,87.2888669 C1337.20072,87.2888669 1337.71113,87.799276 1337.71113,88.4288873 Z"></path>
            </g>
        </g>
    </g>
</svg>