<?xml version="1.0" encoding="UTF-8"?>
<svg width="36px" height="54px" viewBox="0 0 36 54" version="1.1" xmlns="http://www.w3.org/2000/svg" xmlns:xlink="http://www.w3.org/1999/xlink">
    <!-- Generator: sketchtool 46.2 (44496) - http://www.bohemiancoding.com/sketch -->
    <title>814FC681-5CA1-41AD-98C6-BB7C96702E39</title>
    <desc>Created with sketchtool.</desc>
    <defs>
        <linearGradient x1="50%" y1="0%" x2="50%" y2="100%" id="linearGradient-1">
            <stop stop-color="#EB2B4F" offset="0%"></stop>
            <stop stop-color="#B62A8B" offset="100%"></stop>
        </linearGradient>
        <path d="M23.3011955,0.587822829 C23.6374063,0.25763861 24.0776494,0.0925465007 24.5182371,0.0925465007 C24.9591692,0.0925465007 25.4004458,0.258316606 25.7366565,0.589856818 C26.409078,1.25259824 26.4080446,2.32552745 25.7345897,2.98691289 L5.95671733,22.4179491 L7.96089159,22.4179491 L23.3638906,7.23335497 C24.0304559,6.56518958 25.1207295,6.55434164 25.8000405,7.2103031 C26.4793516,7.86558656 26.4896859,8.93885477 25.8238095,9.60702017 L12.7863425,22.4179491 L14.7185208,22.4179491 L23.2887943,13.8747987 C23.9588045,13.2103623 25.049078,13.2059554 25.7242553,13.8653068 C26.3997771,14.5243192 26.4045998,15.5975875 25.7345897,16.2623629 L19.570152,22.4179491 L20.5457143,22.4179491 L27.4025532,22.4179491 L34.1867072,22.4179491 C34.8777305,22.4179491 35.5015805,22.8237299 35.7719959,23.4498595 C36.0420669,24.0753111 35.9063425,24.7994112 35.4264843,25.2889246 L8.6227844,52.6281353 C8.28450679,52.9728964 7.83392928,53.1468025 7.38231834,53.1468025 C6.95240953,53.1468025 6.55920973,52.9891683 6.22541033,52.672205 C5.54058764,52.0226845 5.52026342,50.9497553 6.18062817,50.275827 L30.133921,25.8075918 L28.1163121,25.8075918 L8.61608916,45.3777461 C8.2802229,45.7086083 7.8389463,45.8740394 7.39835866,45.8740394 C6.95777102,45.8740394 6.51683891,45.7086083 6.18062817,45.3777461 C5.50786221,44.7156826 5.50786221,43.6424144 6.18062817,42.980351 L23.2443566,25.8075918 L21.26154,25.8075918 L8.62263425,38.3064543 C8.28607903,38.6396895 7.843769,38.8057987 7.40145897,38.8057987 C6.96224924,38.8057987 6.52269504,38.6413845 6.1864843,38.3125563 C5.51234043,37.6518489 5.5095846,36.5785807 6.18062817,35.9151612 L16.4016413,25.8075918 L15.4364134,25.8075918 L8.68464032,25.8075918 L1.7933536,25.8075918 C1.09612969,25.8075918 0.468490375,25.394353 0.201864235,24.7607654 C-0.0644174265,24.1268388 0.0833637285,23.3976538 0.576656535,22.9132254 L23.3011955,0.587822829 Z" id="path-2"></path>
        <linearGradient x1="50%" y1="0.81114477%" x2="50%" y2="100%" id="linearGradient-4">
            <stop stop-color="#6F2A82" stop-opacity="0" offset="0%"></stop>
            <stop stop-color="#6F2A82" offset="100%"></stop>
        </linearGradient>
        <linearGradient x1="44.2934901%" y1="100%" x2="44.2934912%" y2="0%" id="linearGradient-5">
            <stop stop-color="#6F2A82" stop-opacity="0" offset="0%"></stop>
            <stop stop-color="#6F2A82" offset="100%"></stop>
        </linearGradient>
        <linearGradient x1="50%" y1="100%" x2="50%" y2="0%" id="linearGradient-6">
            <stop stop-color="#6F2A82" stop-opacity="0" offset="0%"></stop>
            <stop stop-color="#6F2A82" offset="100%"></stop>
        </linearGradient>
    </defs>
    <g id="Symbols" stroke="none" stroke-width="1" fill="none" fill-rule="evenodd">
        <g id="Footer" transform="translate(-72.000000, -66.000000)">
            <g id="Mark">
                <g transform="translate(72.000000, 66.000000)">
                    <mask id="mask-3" fill="white">
                        <use xlink:href="#path-2"></use>
                    </mask>
                    <use id="Clip-17" fill="url(#linearGradient-1)" xlink:href="#path-2"></use>
                    <polygon id="Fill-19" fill="url(#linearGradient-4)" mask="url(#mask-3)" points="9.88721378 20.4795575 7.96089159 22.4179491 12.7863425 22.4179491 14.7185208 20.4795575"></polygon>
                    <polygon id="Page-1" mask="url(#mask-3)" points="20.8726241 23.1442899 18.9463019 25.0826815 23.7714083 25.0826815 25.7039311 23.1442899"></polygon>
                    <polygon id="Fill-21" fill="url(#linearGradient-4)" mask="url(#mask-3)" points="16.6999595 20.4795575 14.7185208 22.4179491 19.5608511 22.4179491 21.5236879 20.4795575"></polygon>
                    <polygon id="Fill-23" fill="url(#linearGradient-5)" mask="url(#mask-3)" points="21.3163121 27.7456443 26.1479635 27.7456443 28.1163121 25.8075918 23.2491793 25.8075918"></polygon>
                    <polygon id="Fill-25" fill="url(#linearGradient-6)" mask="url(#mask-3)" points="16.4016413 25.8075918 14.4567173 27.7456443 19.2801013 27.7456443 21.26154 25.8075918"></polygon>
                </g>
            </g>
        </g>
    </g>
</svg>