<?xml version="1.0" encoding="UTF-8"?>
<svg width="461px" height="365px" viewBox="0 0 461 365" version="1.1" xmlns="http://www.w3.org/2000/svg" xmlns:xlink="http://www.w3.org/1999/xlink">
    <!-- Generator: sketchtool 46.2 (44496) - http://www.bohemiancoding.com/sketch -->
    <title>0241C1F3-D79B-4FDB-8728-5F753FF71522</title>
    <desc>Created with sketchtool.</desc>
    <defs>
        <linearGradient x1="50%" y1="0%" x2="50%" y2="100%" id="linearGradient-1">
            <stop stop-color="#A854B8" offset="0%"></stop>
            <stop stop-color="#6F2A82" offset="100%"></stop>
        </linearGradient>
        <path d="M-1.13686838e-13,331.642683 L460.800009,331.642683 C451.908202,255.15027 433.306856,203.27165 404.995971,176.006824 C362.529644,135.109584 314.269608,244.108376 280.001468,135.665799 C245.733327,27.2232217 203.844632,2.40599799 160.936382,0.103886646 C118.028133,-2.19822469 58.3755405,33.6235548 34.8770889,121.235114 C19.2114544,179.64282 7.58575813,249.778677 -1.13686838e-13,331.642683 Z" id="path-2"></path>
        <path d="M0.0382394221,82.5122552 C0.0382394221,36.9807803 36.9497624,0.0702270765 82.4824335,0.0702270765 C128.015105,0.0702270765 164.926628,36.9807803 164.926628,82.5122552 L164.926628,142.559922 L0.0382394221,142.559922 L0.0382394221,82.5122552 Z" id="path-4"></path>
        <path d="M90.1852611,49.5758117 C90.4654165,49.3006781 90.8322592,49.1631113 91.1993891,49.1631113 C91.5668059,49.1631113 91.9345098,49.301243 92.2146652,49.5775066 C92.7749759,50.1297512 92.7741148,51.0237942 92.2129429,51.5749089 L75.7325745,67.7662681 L77.4025989,67.7662681 L90.2375032,55.1133547 C90.7929342,54.5565905 91.7014298,54.5475512 92.2674814,55.0941462 C92.833533,55.6401763 92.8421443,56.5345018 92.2872874,57.091266 L81.4235172,67.7662681 L83.0335493,67.7662681 L90.1749275,60.647491 C90.7332289,60.093834 91.6417245,60.0901618 92.2043316,60.6395816 C92.7672257,61.1887189 92.7712443,62.0830444 92.2129429,62.6369839 L87.076283,67.7662681 L87.8891928,67.7662681 L93.602812,67.7662681 L99.2558649,67.7662681 C99.831676,67.7662681 100.351513,68.1043943 100.576843,68.6261313 C100.801886,69.1473032 100.688791,69.7506764 100.288938,70.1585747 L77.9541364,92.9396028 C77.6722587,93.2268829 77.2968046,93.3717942 76.9204894,93.3717942 C76.562258,93.3717942 76.2346152,93.2404419 75.9564691,92.9763249 C75.3858248,92.435097 75.3688892,91.5410539 75.9191533,90.9794876 L95.8787872,70.5907661 L94.197568,70.5907661 L77.9485574,86.8980487 C77.6686891,87.1737473 77.3009852,87.3115965 76.9338554,87.3115965 C76.5667255,87.3115965 76.1993087,87.1737473 75.9191533,86.8980487 C75.3585556,86.3463691 75.3585556,85.4520436 75.9191533,84.9003639 L90.1378988,70.5907661 L88.4856711,70.5907661 L77.9540112,81.0057317 C77.6735688,81.2834076 77.3050038,81.4218219 76.9364388,81.4218219 C76.5704571,81.4218219 76.2041884,81.28482 75.9240331,81.0108163 C75.3622872,80.4602666 75.3599908,79.5659411 75.9191533,79.0131315 L84.4360484,70.5907661 L83.6317499,70.5907661 L78.0056792,70.5907661 L72.2633556,70.5907661 C71.6823777,70.5907661 71.1593827,70.2464253 70.9372103,69.7184739 C70.715325,69.1902399 70.8384671,68.5826296 71.2495147,68.1789685 L90.1852611,49.5758117 Z" id="path-6"></path>
    </defs>
    <g id="Page-1" stroke="none" stroke-width="1" fill="none" fill-rule="evenodd">
        <g id="What-&amp;-Why" transform="translate(-842.000000, -922.000000)">
            <g id="Illustration-1-Copy" transform="translate(842.000000, 922.000000)">
                <g id="Group-4" transform="translate(0.000000, 32.497650)">
                    <mask id="mask-3" fill="white">
                        <use xlink:href="#path-2"></use>
                    </mask>
                    <use id="Path-2" fill="url(#linearGradient-1)" opacity="0.211333786" xlink:href="#path-2"></use>
                    <rect id="Rectangle-5" fill="#FFFFFF" opacity="0.496773098" mask="url(#mask-3)" x="54.9960228" y="-53.3294766" width="109.158773" height="200.81881"></rect>
                    <rect id="Rectangle-5-Copy" fill="#FFFFFF" opacity="0.496773098" mask="url(#mask-3)" x="199.985537" y="34.164196" width="149.15588" height="200.81881"></rect>
                    <rect id="Rectangle-5-Copy-2" stroke="#B62A8B" stroke-width="0.833273073" opacity="0.496773098" mask="url(#mask-3)" x="194.569262" y="121.241232" width="148.322607" height="126.657507"></rect>
                </g>
                <g id="Group-6" transform="translate(88.326946, 75.827850)">
                    <g id="Group-3-Copy-2">
                        <g id="Group-5" transform="translate(0.000000, 145.822788)">
                            <mask id="mask-5" fill="white">
                                <use xlink:href="#path-4"></use>
                            </mask>
                            <use id="Combined-Shape" fill="#49C3CF" xlink:href="#path-4"></use>
                            <path d="M69.7833649,29.0750458 C45.2560588,51.6743229 31.1484635,70.8059689 27.4605792,86.4699836 C23.7726949,102.133998 20.0723331,121.970888 16.359494,145.980654 L-9.5386982,145.980654 L-2.66256786,37.8797476 L31.4218813,6.1226041 C45.3661853,2.65388794 52.8358058,0.896745045 53.8307425,0.851175424 C54.8256792,0.805605803 60.14322,0.828390613 69.7833649,0.919529856 L69.7833649,29.0750458 Z" id="Path-4" fill-opacity="0.100000001" fill="#000000" style="mix-blend-mode: multiply;" mask="url(#mask-5)"></path>
                            <mask id="mask-7" fill="white">
                                <use xlink:href="#path-6"></use>
                            </mask>
                            <use id="Clip-17" fill="#FFFFFF" xlink:href="#path-6"></use>
                        </g>
                        <path d="M103.045187,154.735016 L103.093482,154.735016 L103.093482,122.314346 L58.9269495,122.314346 L58.9269495,154.735016 L58.9752449,154.735016 C58.9432165,155.222097 58.9269495,155.713488 58.9269495,156.208682 C58.9269495,168.416938 68.8139645,178.313685 81.0102157,178.313685 C93.2064669,178.313685 103.093482,168.416938 103.093482,156.208682 C103.093482,155.713488 103.077215,155.222097 103.045187,154.735016 Z" id="Combined-Shape" fill="#FFFFFF"></path>
                        <path d="M58.9269495,132.365065 C58.2705865,147.035244 58.4435959,156.508449 59.4459777,160.784678 C61.6051996,169.996067 67.7221532,174.475908 68.7552003,174.928756 C75.2355511,177.769492 91.2303255,146.279825 103.510263,135.510183 C121.702497,119.555391 117.875062,114.196078 92.0279573,119.432244 L58.9269495,132.365065 Z" id="Path-3" fill="#D8D8D8"></path>
                        <path d="M23.5937234,82.1878306 C23.5937234,114.115697 49.2999626,139.998348 81.0102157,139.998348 C112.720469,139.998348 138.426708,114.115697 138.426708,82.1878306 L138.426708,36.8416704 L23.5937234,36.8416704 L23.5937234,82.1878306 Z" id="Combined-Shape" fill="#FFFFFF"></path>
                        <ellipse id="Oval-6" fill="#FFFFFF" cx="23.0105722" cy="75.1512511" rx="8.80462694" ry="8.83624438"></ellipse>
                        <path d="M26.9980472,1.97931949e-15 L121.86473,1.97931949e-15 L121.86473,1.42108547e-14 C143.568296,1.02240265e-14 161.162512,17.5942162 161.162512,39.2977818 L161.162512,39.2977818 C156.549885,44.8444692 135.753156,47.6178129 98.7723231,47.6178129 C75.8531573,47.6178129 57.2660339,46.5525717 43.0109528,44.4220894 L43.0109575,44.4220575 C30.743313,42.588606 21.6650999,32.0527873 21.6650999,19.6488909 L21.6650999,5.33294735 L21.6650999,5.33294735 C21.6650999,2.38764186 24.0527417,2.31759056e-15 26.9980472,1.77635684e-15 Z" id="Rectangle-16" fill="#272C69" transform="translate(91.413806, 23.808906) scale(-1, 1) translate(-91.413806, -23.808906) "></path>
                        <path d="M22.3408843,36.6640152 C30.4505994,36.6640152 37.0248224,43.2618463 37.0248224,51.4006834 C37.0248224,59.5395204 30.4505994,66.1373515 22.3408843,66.1373515 L22.3408843,36.6640152 Z M22.3408843,36.6640152 L22.3408843,66.1373515 C18.2860268,66.1373515 14.9989153,59.5395204 14.9989153,51.4006834 C14.9989153,43.2618463 18.2860268,36.6640152 22.3408843,36.6640152 Z" id="Combined-Shape" fill="#272C69"></path>
                    </g>
                    <path d="M69.161665,289.145756 L83.6775367,289.145756 C99.1310467,289.145756 111.658592,283.922789 111.658592,277.479933 C111.658592,271.037077 99.1310467,259.046208 83.6775367,259.046208 L69.161665,259.046208" id="Oval-3" fill="#FFFFFF"></path>
                </g>
                <circle id="Oval-7" fill="#EB2B4F" cx="320.393496" cy="182.070166" r="16.2488249"></circle>
                <circle id="Oval-7-Copy" fill="#EB2B4F" cx="354.557692" cy="237.066189" r="16.2488249"></circle>
                <circle id="Oval-7-Copy-2" fill="#EB2B4F" opacity="0.74926404" cx="387.888615" cy="125.407597" r="16.2488249"></circle>
                <circle id="Oval-7-Copy-3" fill="#EB2B4F" opacity="0.493206522" cx="327.892954" cy="92.0766745" r="16.2488249"></circle>
                <g id="Group-11" transform="translate(349.974690, 16.665461)">
                    <circle id="Oval-7-Copy-4" fill="#EB2B4F" opacity="0.252717391" cx="16.2488249" cy="16.2488249" r="16.2488249"></circle>
                    <text id="$" font-family=".AppleSystemUIFont" font-size="13.3323692" font-weight="normal" fill="#FFFFFF">
                        <tspan x="12.4990961" y="22.9992769">$</tspan>
                    </text>
                </g>
                <g id="Group-7" transform="translate(354.974329, 159.155157)">
                    <circle id="Oval-7-Copy-5" fill="#EB2B4F" opacity="0.252717391" cx="8.12441246" cy="8.12441246" r="8.12441246"></circle>
                    <text id="$-copy-5" font-family=".AppleSystemUIFont" font-size="6.66618458" font-weight="normal" fill="#FFFFFF">
                        <tspan x="6.24954804" y="10.9996384">$</tspan>
                    </text>
                </g>
                <g id="Group-7-Copy-4" transform="translate(379.972521, 99.159496)">
                    <circle id="Oval-7-Copy-5" fill="#EB2B4F" opacity="0.252717391" cx="8.12441246" cy="8.12441246" r="8.12441246"></circle>
                    <text id="$-copy-5" font-family=".AppleSystemUIFont" font-size="6.66618458" font-weight="normal" fill="#FFFFFF">
                        <tspan x="6.24954804" y="10.9996384">$</tspan>
                    </text>
                </g>
                <g id="Group-7-Copy" transform="translate(287.479210, 117.491503)">
                    <circle id="Oval-7-Copy-5" fill="#EB2B4F" opacity="0.252717391" cx="8.12441246" cy="8.12441246" r="8.12441246"></circle>
                    <text id="$-copy-5" font-family=".AppleSystemUIFont" font-size="6.66618458" font-weight="normal" fill="#FFFFFF">
                        <tspan x="6.24954804" y="10.9996384">$</tspan>
                    </text>
                </g>
                <g id="Group-7-Copy-3" transform="translate(289.979029, 204.151903)">
                    <circle id="Oval-7-Copy-5" fill="#EB2B4F" opacity="0.252717391" cx="8.12441246" cy="8.12441246" r="8.12441246"></circle>
                    <text id="$-copy-5" font-family=".AppleSystemUIFont" font-size="6.66618458" font-weight="normal" fill="#FFFFFF">
                        <tspan x="6.24954804" y="10.9996384">$</tspan>
                    </text>
                </g>
                <g id="Group-7-Copy-2" transform="translate(281.646299, 0.000000)">
                    <circle id="Oval-7-Copy-5" fill="#EB2B4F" opacity="0.252717391" cx="8.12441246" cy="8.12441246" r="8.12441246"></circle>
                    <text id="$-copy-5" font-family=".AppleSystemUIFont" font-size="6.66618458" font-weight="normal" fill="#FFFFFF">
                        <tspan x="6.24954804" y="10.9996384">$</tspan>
                    </text>
                </g>
                <text id="$-copy" font-family=".AppleSystemUIFont" font-size="13.3323692" font-weight="normal" fill="#FFFFFF">
                    <tspan x="324.143225" y="98.8271265">$</tspan>
                </text>
                <text id="$-copy-2" font-family=".AppleSystemUIFont" font-size="13.3323692" font-weight="normal" fill="#FFFFFF">
                    <tspan x="384.138886" y="132.158049">$</tspan>
                </text>
                <text id="$-copy-3" font-family=".AppleSystemUIFont" font-size="13.3323692" font-weight="normal" fill="#FFFFFF">
                    <tspan x="316.643768" y="188.820618">$</tspan>
                </text>
                <text id="$-copy-4" font-family=".AppleSystemUIFont" font-size="13.3323692" font-weight="normal" fill="#FFFFFF">
                    <tspan x="349.97469" y="242.983368">$</tspan>
                </text>
                <rect id="Rectangle-9" fill="#F7F7F7" x="207.484995" y="237.482826" width="192.48608" height="126.657507" rx="4.16636536"></rect>
                <path d="M164.988068,351.641237 L399.971075,351.641237 L399.971075,363.30706 L399.971075,363.30706 C399.971075,364.227468 399.224937,364.973606 398.304529,364.973606 L164.988068,364.973606 L164.988068,364.973606 C164.06766,364.973606 163.321522,364.227468 163.321522,363.30706 L163.321522,353.307783 L163.321522,353.307783 C163.321522,352.387375 164.06766,351.641237 164.988068,351.641237 Z" id="Rectangle-3" fill="#E1E1E1"></path>
                <circle id="Oval-4" fill="#272C69" cx="303.728035" cy="301.228216" r="7.91609419"></circle>
                <polygon id="Rectangle-10-Copy" fill="#FFFFFF" points="63.3287535 323.309952 103.325861 323.309952 99.9927687 364.973606 66.6618458 364.973606"></polygon>
                <ellipse id="Oval-5" stroke="#FFFFFF" stroke-width="4.16636536" cx="67.4951189" cy="344.558416" rx="13.3323692" ry="11.2491865"></ellipse>
            </g>
        </g>
    </g>
</svg>