<?xml version="1.0" encoding="UTF-8"?>
<svg width="363px" height="428px" viewBox="0 0 363 428" version="1.1" xmlns="http://www.w3.org/2000/svg" xmlns:xlink="http://www.w3.org/1999/xlink">
    <!-- Generator: sketchtool 46.2 (44496) - http://www.bohemiancoding.com/sketch -->
    <title>64CF6D32-4C17-4C9C-84AA-8DAF9A0B1AE8</title>
    <desc>Created with sketchtool.</desc>
    <defs>
        <linearGradient x1="50%" y1="0%" x2="50%" y2="100%" id="linearGradient-1">
            <stop stop-color="#A854B8" offset="0%"></stop>
            <stop stop-color="#6F2A82" offset="100%"></stop>
        </linearGradient>
        <path d="M-1.13686838e-13,262.331985 L362.879979,262.331985 C355.877681,201.825881 341.229122,160.789483 318.934302,139.222789 C285.492073,106.872749 247.487297,193.091656 220.501139,107.31272 C193.51498,21.5337837 160.527635,1.90316343 126.737391,0.0821751589 C92.9471475,-1.73881312 45.9707346,26.5964977 27.4657053,95.897934 C15.1290192,142.098892 5.97378406,197.576909 -1.13686838e-13,262.331985 Z" id="path-2"></path>
        <path d="M35.6448402,26.4249699 L35.6831979,26.4249699 L35.6831979,0.503800288 L0.604799965,0.503800288 L0.604799965,26.4249699 L0.643157673,26.4249699 C0.617719753,26.8144043 0.604799965,27.2072843 0.604799965,27.6032048 C0.604799965,37.364023 8.45736683,45.2767296 18.143999,45.2767296 C27.8306311,45.2767296 35.6831979,37.364023 35.6831979,27.6032048 C35.6831979,27.2072843 35.6702782,26.8144043 35.6448402,26.4249699 Z" id="path-4"></path>
        <path d="M0.453599974,36.194809 C0.453599974,61.6628334 20.8296571,82.3087464 45.9647973,82.3087464 C71.0999376,82.3087464 91.4759947,61.6628334 91.4759947,36.194809 L91.4759947,0.0233629147 L0.453599974,0.0233629147 L0.453599974,36.194809 Z" id="path-6"></path>
        <circle id="path-8" cx="58.2119966" cy="58.2119966" r="58.2119966"></circle>
    </defs>
    <g id="Page-1" stroke="none" stroke-width="1" fill="none" fill-rule="evenodd">
        <g id="What-&amp;-Why" transform="translate(-192.000000, -1509.000000)">
            <g id="Illustration-2-Copy" transform="translate(191.000000, 1509.000000)">
                <g id="Group-4" transform="translate(182.379979, 297.063990) scale(-1, 1) translate(-182.379979, -297.063990) translate(0.879979, 165.563990)">
                    <mask id="mask-3" fill="white">
                        <use xlink:href="#path-2"></use>
                    </mask>
                    <use id="Path-2" fill="url(#linearGradient-1)" opacity="0.211333786" xlink:href="#path-2"></use>
                    <rect id="Rectangle-5" fill="#FFFFFF" opacity="0.496773098" mask="url(#mask-3)" x="43.8479975" y="-42.3359976" width="86.183995" height="158.759991"></rect>
                    <rect id="Rectangle-5-Copy" fill="#FFFFFF" opacity="0.496773098" mask="url(#mask-3)" x="67.2839961" y="91.4759947" width="86.183995" height="109.619994"></rect>
                    <rect id="Rectangle-5-Copy-2" stroke="#B62A8B" stroke-width="0.755999956" opacity="0.496773098" mask="url(#mask-3)" x="49.5179971" y="-2.64599985" width="85.4279951" height="127.007993"></rect>
                    <rect id="Rectangle-11" fill="#6F2A82" mask="url(#mask-3)" x="30.9959982" y="197.315989" width="18.143999" height="49.8959971" rx="9.07199948"></rect>
                    <rect id="Rectangle-11-Copy" fill="#B62A8B" mask="url(#mask-3)" x="42.3359976" y="206.387988" width="18.143999" height="40.8239976" rx="9.07199948"></rect>
                    <polygon id="Rectangle-6" stroke="#FFFFFF" stroke-width="1.51199991" fill="#E5D5E8" stroke-linecap="round" stroke-linejoin="round" mask="url(#mask-3)" points="25.7039985 231.335987 68.0399961 231.335987 60.4799965 262.331985 33.2639981 262.331985"></polygon>
                </g>
                <g id="Group-10" transform="translate(88.695995, 133.811992)">
                    <path d="M79.7401658,151.585008 C81.942231,151.78279 84.1717011,151.883791 86.4244183,151.883791 C88.5176353,151.883791 90.5907806,151.796586 92.6405185,151.625562 C97.8533942,168.248662 113.308507,180.301796 131.563446,180.301796 C154.099173,180.301796 172.36799,161.932929 172.36799,139.273782 C172.36799,128.38342 168.148033,118.484079 161.262594,111.138747 L161.262594,75.3967698 C160.971881,33.706133 127.577186,0 86.4244183,0 C45.2716507,0 11.8769555,33.706133 11.5881305,75.3967698 L11.5862427,110.634403 C4.41693971,118.027786 0,128.132143 0,139.273782 C0,161.932929 18.2688168,180.301796 40.8045443,180.301796 C59.0743252,180.301796 74.5397247,168.229055 79.7401658,151.585008 Z" id="Combined-Shape" fill="#6F2A82"></path>
                    <path d="M23.2847987,211.489785 C23.2847987,175.218349 52.6642299,145.81454 88.9055949,145.81454 C125.14696,145.81454 154.526391,175.218349 154.526391,211.489785 L154.526391,293.990531 L23.2847987,293.990531 L23.2847987,211.489785 Z" id="Combined-Shape" fill="#B62A8B"></path>
                    <g id="Group-8" transform="translate(69.551996, 126.251993)">
                        <mask id="mask-5" fill="white">
                            <use xlink:href="#path-4"></use>
                        </mask>
                        <use id="Combined-Shape" fill="#FFFFFF" xlink:href="#path-4"></use>
                        <ellipse id="Oval-8" fill="#D8D8D8" mask="url(#mask-5)" cx="12.4739993" cy="12.4739993" rx="23.0579987" ry="18.5219989"></ellipse>
                    </g>
                    <g id="Group-9" transform="translate(41.579998, 58.967997)">
                        <mask id="mask-7" fill="white">
                            <use xlink:href="#path-6"></use>
                        </mask>
                        <use id="Combined-Shape" fill="#FFFFFF" xlink:href="#path-6"></use>
                    </g>
                    <polygon id="Triangle" fill="#FFFFFF" points="65.0159962 45.9830084 73.7855957 63.5291564 56.2463968 63.5291564"></polygon>
                    <ellipse id="Oval-11" fill="#6F2A82" cx="102.815994" cy="48.6940051" rx="39.3119977" ry="19.2100068"></ellipse>
                    <ellipse id="Oval-11-Copy" fill="#6F2A82" cx="43.0919975" cy="48.6940051" rx="23.4359986" ry="19.2100068"></ellipse>
                </g>
                <rect id="Rectangle-10" fill="#F7F7F7" x="88.6959949" y="341.71198" width="172.36799" height="86.183995"></rect>
                <circle id="Oval-10" fill="#272C69" cx="174.87999" cy="390.851977" r="6.04799965"></circle>
                <g id="Group-11" transform="translate(239.139986, 64.259996)">
                    <circle id="Oval-7-Copy-4" fill="#EB2B4F" opacity="0.252717391" cx="14.7419991" cy="14.7419991" r="14.7419991"></circle>
                    <text id="$" font-family=".AppleSystemUIFont" font-size="12.0959993" font-weight="normal" fill="#FFFFFF">
                        <tspan x="11.3399993" y="21.0719995">$</tspan>
                    </text>
                </g>
                <g id="Group-11-Copy" transform="translate(65.259996, 91.475995)">
                    <circle id="Oval-7-Copy-4" fill="#EB2B4F" opacity="0.252717391" cx="14.7419991" cy="14.7419991" r="14.7419991"></circle>
                    <text id="$" font-family=".AppleSystemUIFont" font-size="12.0959993" font-weight="normal" fill="#FFFFFF">
                        <tspan x="11.3399993" y="21.0719995">$</tspan>
                    </text>
                </g>
                <g id="Group-11-Copy-2" transform="translate(35.775998, 240.407986)">
                    <circle id="Oval-7-Copy-4" fill="#EB2B4F" opacity="0.252717391" cx="14.7419991" cy="14.7419991" r="14.7419991"></circle>
                    <text id="$" font-family=".AppleSystemUIFont" font-size="12.0959993" font-weight="normal" fill="#FFFFFF">
                        <tspan x="11.3399993" y="21.0719995">$</tspan>
                    </text>
                </g>
                <g id="Group-11-Copy-3" transform="translate(329.859981, 168.587990)">
                    <circle id="Oval-7-Copy-4" fill="#EB2B4F" opacity="0.252717391" cx="14.7419991" cy="14.7419991" r="14.7419991"></circle>
                    <text id="$" font-family=".AppleSystemUIFont" font-size="12.0959993" font-weight="normal" fill="#FFFFFF">
                        <tspan x="11.3399993" y="21.0719995">$</tspan>
                    </text>
                </g>
                <circle id="Oval-12" fill="#EB2B4F" cx="284.877984" cy="153.089991" r="44.9819974"></circle>
                <path d="M279.384615,142 L308.615385,142" id="Line" stroke="#FFFFFF" stroke-width="2" stroke-linecap="square"></path>
                <circle id="Oval-13" fill="#FFFFFF" cx="266.5" cy="147.5" r="6.5"></circle>
                <path d="M279.384615,153 L308.615385,153" id="Line-Copy" stroke="#FFFFFF" stroke-width="2" stroke-linecap="square"></path>
                <path d="M279.384615,165 L308.615385,165" id="Line-Copy-2" stroke="#FFFFFF" stroke-width="2" stroke-linecap="square"></path>
                <g id="Group-12" transform="translate(105.327994, 0.000000)">
                    <mask id="mask-9" fill="white">
                        <use xlink:href="#path-8"></use>
                    </mask>
                    <use id="Oval-12-Copy" fill="#EB2B4F" xlink:href="#path-8"></use>
                </g>
                <path d="M142,54.3368823 L142,73.6631177 C142,75.5060757 143.235827,77 144.760239,77 L151,77 L151,51 L144.760239,51 C143.235827,51 142,52.4939243 142,54.3368823 Z" id="Shape" fill="#FFFFFF" fill-rule="nonzero"></path>
                <path d="M187,57.2304477 C187,55.729881 186.170994,54.4232077 184.940839,53.720034 C185.672582,52.9876027 186.12463,51.983919 186.12463,50.8756022 C186.12463,48.6331822 184.27713,46.8152451 181.998244,46.8152451 L168.87172,46.8152451 L169.70879,43.5309578 C170.662778,39.7864834 169.758682,35.7018277 166.944092,33.0869935 C166.783834,32.9178946 166.607449,32.7646642 166.415442,32.6302777 C166.410403,32.6263106 166.405363,32.6213517 166.400324,32.6173845 L166.398812,32.6183763 C165.836902,32.2295976 165.153538,32 164.415244,32 C163.695596,32 163.027855,32.2167044 162.474512,32.5866393 C161.565377,33.1380703 160.957607,34.123902 160.957607,35.2515585 L160.957607,35.3983423 L160.957607,40.8288467 L155.006399,49.8312553 C154.842109,50.0796968 154.69697,50.338552 154.571989,50.6053415 C154.447008,50.8721309 154.341682,51.1473505 154.257017,51.4285208 C154.087688,51.9908614 154,52.5770048 154,53.1695948 L154,65.8792859 L154,65.8792859 L154,70.3695806 L154,70.3695806 L154,72.0323038 L154,74 L157.833084,74 L174.356266,74 L177.726719,74 C180.005605,74 181.853105,72.1820629 181.853105,69.939643 C181.853105,69.0718334 181.573913,68.2694814 181.102715,67.6094503 C183.135167,67.3570417 184.708515,65.6536554 184.708515,63.5847974 L184.708515,63.5847974 C184.708515,62.675333 184.401103,61.8387645 183.887572,61.1618731 C185.675102,60.7170587 187,59.1282233 187,57.2304477 Z" id="Shape" fill="#FFFFFF" fill-rule="nonzero"></path>
                <circle id="Oval-12-Copy-2" fill="#EB2B4F" cx="54.2979969" cy="165.94199" r="40.4459977"></circle>
                <path d="M54,160.0625 C52.8833333,157.13975 49.755,155 46.5,155 C42.2616667,155 39,158.26025 39,162.59375 C39,168.548937 45.3216667,173.154125 54,182 C62.6783333,173.154125 69,168.548937 69,162.59375 C69,158.26025 65.7383333,155 61.5,155 C58.2416667,155 55.1166667,157.13975 54,160.0625 Z" id="Shape" fill="#FFFFFF"></path>
                <path d="M296.12053,194.473162 C282.707437,221.433715 239.139986,222.459926 239.139986,222.459926 C239.139986,222.459926 274.485937,211.292685 274.485937,188.92867 C274.485937,166.564656 309.533623,167.512609 296.12053,194.473162 Z" id="Path-5" fill="#EB2B4F"></path>
                <path d="M111.65654,199.009162 C98.2434475,225.969715 54.6759969,226.995926 54.6759969,226.995926 C54.6759969,226.995926 90.021948,215.828684 90.021948,193.46467 C90.021948,171.100656 125.069633,172.048609 111.65654,199.009162 Z" id="Path-5-Copy" fill="#EB2B4F" transform="translate(84.695563, 202.327958) scale(-1, 1) translate(-84.695563, -202.327958) "></path>
                <path d="M170.620662,117.726069 C157.207569,144.686622 113.640119,145.712833 113.640119,145.712833 C113.640119,145.712833 148.98607,134.545592 148.98607,112.181577 C148.98607,89.8175629 184.033755,90.765516 170.620662,117.726069 Z" id="Path-5-Copy-2" fill="#EB2B4F" transform="translate(143.659685, 121.044865) scale(-1, 1) rotate(-30.000000) translate(-143.659685, -121.044865) "></path>
            </g>
        </g>
    </g>
</svg>