<?xml version="1.0" encoding="UTF-8"?>
<svg width="19px" height="16px" viewBox="0 0 19 16" version="1.1" xmlns="http://www.w3.org/2000/svg" xmlns:xlink="http://www.w3.org/1999/xlink">
    <!-- Generator: sketchtool 46.2 (44496) - http://www.bohemiancoding.com/sketch -->
    <title>C44EF4A6-7FDE-49ED-9F81-8A55FAABE05D</title>
    <desc>Created with sketchtool.</desc>
    <defs></defs>
    <g id="Symbols" stroke="none" stroke-width="1" fill="none" fill-rule="evenodd">
        <g id="Footer" transform="translate(-1283.000000, -86.000000)" fill="#272C69">
            <g id="Twitter">
                <path d="M1302,87.8941134 C1301.30187,88.2153846 1300.55021,88.4326472 1299.76175,88.5297219 C1300.56694,88.0304803 1301.18477,87.2388588 1301.47585,86.2958469 C1300.72196,86.7581076 1299.88889,87.0944023 1298.99894,87.274684 C1298.28966,86.4899964 1297.27593,86 1296.15402,86 C1294.00276,86 1292.25744,87.8085952 1292.25744,90.0390033 C1292.25744,90.3556519 1292.2909,90.6630553 1292.35781,90.9589021 C1289.1181,90.790177 1286.2464,89.1838209 1284.32265,86.7373059 C1283.98697,87.3359336 1283.79515,88.0304803 1283.79515,88.7700975 C1283.79515,90.1707476 1284.48324,91.4072951 1285.52932,92.1318888 C1284.89141,92.1122427 1284.28919,91.928494 1283.76281,91.6280246 L1283.76281,91.6777176 C1283.76281,93.6353918 1285.10665,95.2683279 1286.891,95.6381365 C1286.56424,95.7329 1286.21964,95.7802817 1285.86388,95.7802817 C1285.61296,95.7802817 1285.36761,95.756013 1285.13007,95.7086313 C1285.62634,97.3126761 1287.06498,98.4810401 1288.77126,98.5122427 C1287.43746,99.5962441 1285.75571,100.242254 1283.93009,100.242254 C1283.6156,100.242254 1283.30446,100.223763 1283,100.186782 C1284.72525,101.330878 1286.77502,102 1288.97535,102 C1296.14621,102 1300.06621,95.8461538 1300.06621,90.5081979 C1300.06621,90.3325388 1300.06286,90.1568797 1300.05617,89.9846876 C1300.81787,89.4149512 1301.47919,88.7042254 1302,87.8941134"></path>
            </g>
        </g>
    </g>
</svg>